<?xml version="1.0" standalone="no"?>
<!DOCTYPE svg PUBLIC "-//W3C//DTD SVG 20010904//EN"
 "http://www.w3.org/TR/2001/REC-SVG-20010904/DTD/svg10.dtd">
<svg version="1.0" xmlns="http://www.w3.org/2000/svg"
 width="146.000000pt" height="146.000000pt" viewBox="0 0 146.000000 146.000000"
 preserveAspectRatio="xMidYMid meet">
<metadata>
Created by potrace 1.11, written by Peter Selinger 2001-2013
</metadata>
<g transform="translate(0.000000,146.000000) scale(0.100000,-0.100000)"
fill="#000000" stroke="none">
<path d="M205 1078 c-4 -18 -8 -40 -10 -48 -4 -23 -14 -72 -21 -105 -4 -16 -8
-39 -10 -50 -1 -11 -3 -20 -4 -20 -2 0 -6 -18 -15 -65 -3 -19 -11 -55 -16 -80
-6 -25 -13 -54 -15 -65 -2 -11 -6 -31 -9 -45 -13 -57 -17 -76 -19 -96 -2 -11
-6 -25 -9 -30 -3 -6 -8 -28 -11 -49 -3 -22 -8 -50 -11 -62 l-7 -21 624 0 c531
0 625 2 627 14 1 8 2 23 3 34 1 11 6 20 10 20 4 0 7 10 7 23 -1 12 2 33 5 47
3 14 9 38 12 54 2 16 6 32 8 35 4 5 14 56 21 106 2 11 4 21 5 23 4 3 6 13 15
67 10 57 12 64 15 68 2 3 6 23 14 67 4 19 9 42 12 51 2 10 6 31 9 48 2 17 6
41 10 53 18 64 82 58 -608 58 l-624 0 -8 -32z"/>
<path d="M1338 367 c-4 -20 -2 -25 7 -17 6 5 14 8 17 5 2 -3 5 2 5 10 0 8 -4
12 -8 9 -4 -2 -9 2 -11 8 -3 7 -7 1 -10 -15z"/>
</g>
</svg>
